<svg xmlns="http://www.w3.org/2000/svg" viewBox="0 0 64 64">
  <defs>
    <linearGradient id="grad1" x1="0%" y1="0%" x2="100%" y2="100%">
      <stop offset="0%" style="stop-color:#8c52ff;stop-opacity:1" />
      <stop offset="100%" style="stop-color:#7c3aed;stop-opacity:1" />
    </linearGradient>
  </defs>
  <rect width="64" height="64" fill="url(#grad1)" rx="12"/>
  <g transform="translate(8, 8) scale(0.75)">
    <path fill="#ffffff" d="M 10.636719 31.585938 C 8.984375 31.585938 7.628906 32.941406 7.628906 34.59375 C 7.628906 36.25 8.984375 37.601562 10.636719 37.601562 C 12.292969 37.601562 13.644531 36.25 13.644531 34.59375 C 13.644531 32.941406 12.292969 31.585938 10.636719 31.585938 Z M 10.636719 43.621094 C 8.984375 43.621094 7.628906 44.972656 7.628906 46.628906 C 7.628906 48.28125 8.984375 49.636719 10.636719 49.636719 C 12.292969 49.636719 13.644531 48.28125 13.644531 46.628906 C 13.644531 44.972656 12.292969 43.621094 10.636719 43.621094 Z M 10.636719 19.554688 C 8.984375 19.554688 7.628906 20.90625 7.628906 22.5625 C 7.628906 24.214844 8.984375 25.570312 10.636719 25.570312 C 12.292969 25.570312 13.644531 24.214844 13.644531 22.5625 C 13.644531 20.90625 12.292969 19.554688 10.636719 19.554688 Z M 1.613281 21.058594 C 0.785156 21.058594 0.109375 21.734375 0.109375 22.5625 C 0.109375 23.390625 0.785156 24.066406 1.613281 24.066406 C 2.441406 24.066406 3.117188 23.390625 3.117188 22.5625 C 3.117188 21.734375 2.441406 21.058594 1.613281 21.058594 Z M 10.636719 7.519531 C 8.984375 7.519531 7.628906 8.875 7.628906 10.527344 C 7.628906 12.183594 8.984375 13.535156 10.636719 13.535156 C 12.292969 13.535156 13.644531 12.183594 13.644531 10.527344 C 13.644531 8.875 12.292969 7.519531 10.636719 7.519531 Z M 55.761719 24.066406 C 56.589844 24.066406 57.265625 23.390625 57.265625 22.5625 C 57.265625 21.734375 56.589844 21.058594 55.761719 21.058594 C 54.933594 21.058594 54.257812 21.734375 54.257812 22.5625 C 54.257812 23.390625 54.933594 24.066406 55.761719 24.066406 Z M 34.703125 13.535156 C 36.359375 13.535156 37.710938 12.183594 37.710938 10.527344 C 37.710938 8.875 36.359375 7.519531 34.703125 7.519531 C 33.050781 7.519531 31.695312 8.875 31.695312 10.527344 C 31.695312 12.183594 33.050781 13.535156 34.703125 13.535156 Z M 34.703125 3.007812 C 35.53125 3.007812 36.207031 2.332031 36.207031 1.503906 C 36.207031 0.675781 35.53125 0 34.703125 0 C 33.875 0 33.199219 0.675781 33.199219 1.503906 C 33.199219 2.332031 33.875 3.007812 34.703125 3.007812 Z M 1.613281 33.089844 C 0.785156 33.089844 0.109375 33.765625 0.109375 34.59375 C 0.109375 35.421875 0.785156 36.097656 1.613281 36.097656 C 2.441406 36.097656 3.117188 35.421875 3.117188 34.59375 C 3.117188 33.765625 2.441406 33.089844 1.613281 33.089844 Z M 22.671875 54.148438 C 21.84375 54.148438 21.167969 54.824219 21.167969 55.652344 C 21.167969 56.480469 21.84375 57.15625 22.671875 57.15625 C 23.496094 57.15625 24.175781 56.480469 24.175781 55.652344 C 24.175781 54.824219 23.496094 54.148438 22.671875 54.148438 Z M 22.671875 3.007812 C 23.496094 3.007812 24.175781 2.332031 24.175781 1.503906 C 24.175781 0.675781 23.496094 0 22.671875 0 C 21.84375 0 21.167969 0.675781 21.167969 1.503906 C 21.167969 2.332031 21.84375 3.007812 22.671875 3.007812 Z M 22.671875 13.535156 C 24.324219 13.535156 25.679688 12.183594 25.679688 10.527344 C 25.679688 8.875 24.324219 7.519531 22.671875 7.519531 C 21.015625 7.519531 19.664062 8.875 19.664062 10.527344 C 19.664062 12.183594 21.015625 13.535156 22.671875 13.535156 Z M 22.671875 30.082031 C 20.171875 30.082031 18.160156 32.097656 18.160156 34.59375 C 18.160156 37.089844 20.171875 39.105469 22.671875 39.105469 C 25.167969 39.105469 27.183594 37.089844 27.183594 34.59375 C 27.183594 32.097656 25.167969 30.082031 22.671875 30.082031 Z M 46.738281 31.585938 C 45.082031 31.585938 43.726562 32.941406 43.726562 34.59375 C 43.726562 36.25 45.082031 37.601562 46.738281 37.601562 C 48.390625 37.601562 49.746094 36.25 49.746094 34.59375 C 49.746094 32.941406 48.390625 31.585938 46.738281 31.585938 Z M 46.738281 43.621094 C 45.082031 43.621094 43.726562 44.972656 43.726562 46.628906 C 43.726562 48.28125 45.082031 49.636719 46.738281 49.636719 C 48.390625 49.636719 49.746094 48.28125 49.746094 46.628906 C 49.746094 44.972656 48.390625 43.621094 46.738281 43.621094 Z M 46.738281 19.554688 C 45.082031 19.554688 43.726562 20.90625 43.726562 22.5625 C 43.726562 24.214844 45.082031 25.570312 46.738281 25.570312 C 48.390625 25.570312 49.746094 24.214844 49.746094 22.5625 C 49.746094 20.90625 48.390625 19.554688 46.738281 19.554688 Z M 46.738281 7.519531 C 45.082031 7.519531 43.726562 8.875 43.726562 10.527344 C 43.726562 12.183594 45.082031 13.535156 46.738281 13.535156 C 48.390625 13.535156 49.746094 12.183594 49.746094 10.527344 C 49.746094 8.875 48.390625 7.519531 46.738281 7.519531 Z M 55.761719 33.089844 C 54.933594 33.089844 54.257812 33.765625 54.257812 34.59375 C 54.257812 35.421875 54.933594 36.097656 55.761719 36.097656 C 56.589844 36.097656 57.265625 35.421875 57.265625 34.59375 C 57.265625 33.765625 56.589844 33.089844 55.761719 33.089844 Z M 34.703125 43.621094 C 33.050781 43.621094 31.695312 44.972656 31.695312 46.628906 C 31.695312 48.28125 33.050781 49.636719 34.703125 49.636719 C 36.359375 49.636719 37.710938 48.28125 37.710938 46.628906 C 37.710938 44.972656 36.359375 43.621094 34.703125 43.621094 Z M 34.703125 54.148438 C 33.875 54.148438 33.199219 54.824219 33.199219 55.652344 C 33.199219 56.480469 33.875 57.15625 34.703125 57.15625 C 35.53125 57.15625 36.207031 56.480469 36.207031 55.652344 C 36.207031 54.824219 35.53125 54.148438 34.703125 54.148438 Z M 22.671875 18.050781 C 20.171875 18.050781 18.160156 20.066406 18.160156 22.5625 C 18.160156 25.058594 20.171875 27.074219 22.671875 27.074219 C 25.167969 27.074219 27.183594 25.058594 27.183594 22.5625 C 27.183594 20.066406 25.167969 18.050781 22.671875 18.050781 Z M 22.671875 43.621094 C 21.015625 43.621094 19.664062 44.972656 19.664062 46.628906 C 19.664062 48.28125 21.015625 49.636719 22.671875 49.636719 C 24.324219 49.636719 25.679688 48.28125 25.679688 46.628906 C 25.679688 44.972656 24.324219 43.621094 22.671875 43.621094 Z M 34.703125 30.082031 C 32.207031 30.082031 30.191406 32.097656 30.191406 34.59375 C 30.191406 37.089844 32.207031 39.105469 34.703125 39.105469 C 37.199219 39.105469 39.214844 37.089844 39.214844 34.59375 C 39.214844 32.097656 37.199219 30.082031 34.703125 30.082031 Z M 34.703125 18.050781 C 32.207031 18.050781 30.191406 20.066406 30.191406 22.5625 C 30.191406 25.058594 32.207031 27.074219 34.703125 27.074219 C 37.199219 27.074219 39.214844 25.058594 39.214844 22.5625 C 39.214844 20.066406 37.199219 18.050781 34.703125 18.050781 Z" fill-opacity="1" fill-rule="nonzero"/>
  </g>
</svg>
