<svg xmlns="http://www.w3.org/2000/svg" xmlns:xlink="http://www.w3.org/1999/xlink" width="77" zoomAndPan="magnify" viewBox="0 0 57.75 58.499998" height="78" preserveAspectRatio="xMidYMid meet" version="1.0"><defs><clipPath id="aa05d62b17"><path d="M 0.121094 0 L 57.382812 0 L 57.382812 57.261719 L 0.121094 57.261719 Z M 0.121094 0 " clip-rule="nonzero"/></clipPath></defs><g clip-path="url(#aa05d62b17)"><path fill="#8c52ff" d="M 10.644531 31.574219 C 8.992188 31.574219 7.636719 32.925781 7.636719 34.582031 C 7.636719 36.234375 8.992188 37.585938 10.644531 37.585938 C 12.300781 37.585938 13.652344 36.234375 13.652344 34.582031 C 13.652344 32.925781 12.300781 31.574219 10.644531 31.574219 Z M 10.644531 43.601562 C 8.992188 43.601562 7.636719 44.953125 7.636719 46.609375 C 7.636719 48.261719 8.992188 49.617188 10.644531 49.617188 C 12.300781 49.617188 13.652344 48.261719 13.652344 46.609375 C 13.652344 44.953125 12.300781 43.601562 10.644531 43.601562 Z M 10.644531 19.546875 C 8.992188 19.546875 7.636719 20.898438 7.636719 22.550781 C 7.636719 24.207031 8.992188 25.558594 10.644531 25.558594 C 12.300781 25.558594 13.652344 24.207031 13.652344 22.550781 C 13.652344 20.898438 12.300781 19.546875 10.644531 19.546875 Z M 1.625 21.050781 C 0.796875 21.050781 0.121094 21.726562 0.121094 22.550781 C 0.121094 23.378906 0.796875 24.054688 1.625 24.054688 C 2.453125 24.054688 3.128906 23.378906 3.128906 22.550781 C 3.128906 21.726562 2.453125 21.050781 1.625 21.050781 Z M 10.644531 7.515625 C 8.992188 7.515625 7.636719 8.871094 7.636719 10.523438 C 7.636719 12.179688 8.992188 13.53125 10.644531 13.53125 C 12.300781 13.53125 13.652344 12.179688 13.652344 10.523438 C 13.652344 8.871094 12.300781 7.515625 10.644531 7.515625 Z M 55.75 24.054688 C 56.578125 24.054688 57.253906 23.378906 57.253906 22.550781 C 57.253906 21.726562 56.578125 21.050781 55.75 21.050781 C 54.921875 21.050781 54.246094 21.726562 54.246094 22.550781 C 54.246094 23.378906 54.921875 24.054688 55.75 24.054688 Z M 34.699219 13.53125 C 36.355469 13.53125 37.707031 12.179688 37.707031 10.523438 C 37.707031 8.871094 36.355469 7.515625 34.699219 7.515625 C 33.046875 7.515625 31.695312 8.871094 31.695312 10.523438 C 31.695312 12.179688 33.046875 13.53125 34.699219 13.53125 Z M 34.699219 3.007812 C 35.527344 3.007812 36.203125 2.332031 36.203125 1.503906 C 36.203125 0.675781 35.527344 0 34.699219 0 C 33.875 0 33.199219 0.675781 33.199219 1.503906 C 33.199219 2.332031 33.875 3.007812 34.699219 3.007812 Z M 1.625 33.078125 C 0.796875 33.078125 0.121094 33.753906 0.121094 34.582031 C 0.121094 35.40625 0.796875 36.082031 1.625 36.082031 C 2.453125 36.082031 3.128906 35.40625 3.128906 34.582031 C 3.128906 33.753906 2.453125 33.078125 1.625 33.078125 Z M 22.671875 54.125 C 21.847656 54.125 21.167969 54.800781 21.167969 55.628906 C 21.167969 56.457031 21.847656 57.132812 22.671875 57.132812 C 23.5 57.132812 24.175781 56.457031 24.175781 55.628906 C 24.175781 54.800781 23.5 54.125 22.671875 54.125 Z M 22.671875 3.007812 C 23.5 3.007812 24.175781 2.332031 24.175781 1.503906 C 24.175781 0.675781 23.5 0 22.671875 0 C 21.847656 0 21.167969 0.675781 21.167969 1.503906 C 21.167969 2.332031 21.847656 3.007812 22.671875 3.007812 Z M 22.671875 13.53125 C 24.328125 13.53125 25.679688 12.179688 25.679688 10.523438 C 25.679688 8.871094 24.328125 7.515625 22.671875 7.515625 C 21.019531 7.515625 19.667969 8.871094 19.667969 10.523438 C 19.667969 12.179688 21.019531 13.53125 22.671875 13.53125 Z M 22.671875 30.070312 C 20.175781 30.070312 18.164062 32.085938 18.164062 34.582031 C 18.164062 37.074219 20.175781 39.089844 22.671875 39.089844 C 25.167969 39.089844 27.183594 37.074219 27.183594 34.582031 C 27.183594 32.085938 25.167969 30.070312 22.671875 30.070312 Z M 46.730469 31.574219 C 45.074219 31.574219 43.722656 32.925781 43.722656 34.582031 C 43.722656 36.234375 45.074219 37.585938 46.730469 37.585938 C 48.382812 37.585938 49.734375 36.234375 49.734375 34.582031 C 49.734375 32.925781 48.382812 31.574219 46.730469 31.574219 Z M 46.730469 43.601562 C 45.074219 43.601562 43.722656 44.953125 43.722656 46.609375 C 43.722656 48.261719 45.074219 49.617188 46.730469 49.617188 C 48.382812 49.617188 49.734375 48.261719 49.734375 46.609375 C 49.734375 44.953125 48.382812 43.601562 46.730469 43.601562 Z M 46.730469 19.546875 C 45.074219 19.546875 43.722656 20.898438 43.722656 22.550781 C 43.722656 24.207031 45.074219 25.558594 46.730469 25.558594 C 48.382812 25.558594 49.734375 24.207031 49.734375 22.550781 C 49.734375 20.898438 48.382812 19.546875 46.730469 19.546875 Z M 46.730469 7.515625 C 45.074219 7.515625 43.722656 8.871094 43.722656 10.523438 C 43.722656 12.179688 45.074219 13.53125 46.730469 13.53125 C 48.382812 13.53125 49.734375 12.179688 49.734375 10.523438 C 49.734375 8.871094 48.382812 7.515625 46.730469 7.515625 Z M 55.75 33.078125 C 54.921875 33.078125 54.246094 33.753906 54.246094 34.582031 C 54.246094 35.40625 54.921875 36.082031 55.75 36.082031 C 56.578125 36.082031 57.253906 35.40625 57.253906 34.582031 C 57.253906 33.753906 56.578125 33.078125 55.75 33.078125 Z M 34.699219 43.601562 C 33.046875 43.601562 31.695312 44.953125 31.695312 46.609375 C 31.695312 48.261719 33.046875 49.617188 34.699219 49.617188 C 36.355469 49.617188 37.707031 48.261719 37.707031 46.609375 C 37.707031 44.953125 36.355469 43.601562 34.699219 43.601562 Z M 34.699219 54.125 C 33.875 54.125 33.199219 54.800781 33.199219 55.628906 C 33.199219 56.457031 33.875 57.132812 34.699219 57.132812 C 35.527344 57.132812 36.203125 56.457031 36.203125 55.628906 C 36.203125 54.800781 35.527344 54.125 34.699219 54.125 Z M 22.671875 18.042969 C 20.175781 18.042969 18.164062 20.054688 18.164062 22.550781 C 18.164062 25.046875 20.175781 27.0625 22.671875 27.0625 C 25.167969 27.0625 27.183594 25.046875 27.183594 22.550781 C 27.183594 20.054688 25.167969 18.042969 22.671875 18.042969 Z M 22.671875 43.601562 C 21.019531 43.601562 19.667969 44.953125 19.667969 46.609375 C 19.667969 48.261719 21.019531 49.617188 22.671875 49.617188 C 24.328125 49.617188 25.679688 48.261719 25.679688 46.609375 C 25.679688 44.953125 24.328125 43.601562 22.671875 43.601562 Z M 34.699219 30.070312 C 32.207031 30.070312 30.191406 32.085938 30.191406 34.582031 C 30.191406 37.074219 32.207031 39.089844 34.699219 39.089844 C 37.195312 39.089844 39.210938 37.074219 39.210938 34.582031 C 39.210938 32.085938 37.195312 30.070312 34.699219 30.070312 Z M 34.699219 18.042969 C 32.207031 18.042969 30.191406 20.054688 30.191406 22.550781 C 30.191406 25.046875 32.207031 27.0625 34.699219 27.0625 C 37.195312 27.0625 39.210938 25.046875 39.210938 22.550781 C 39.210938 20.054688 37.195312 18.042969 34.699219 18.042969 Z M 34.699219 18.042969 " fill-opacity="1" fill-rule="nonzero"/></g></svg>