<svg xmlns="http://www.w3.org/2000/svg" xmlns:xlink="http://www.w3.org/1999/xlink" width="70" zoomAndPan="magnify" viewBox="0 0 52.5 52.499999" height="70" preserveAspectRatio="xMidYMid meet" version="1.0"><defs><clipPath id="e338989499"><path d="M 0 0 L 51.3125 0 L 51.3125 51.3125 L 0 51.3125 Z M 0 0 " clip-rule="nonzero"/></clipPath><clipPath id="f33029c919"><path d="M 25.65625 0 C 11.488281 0 0 11.488281 0 25.65625 C 0 39.828125 11.488281 51.3125 25.65625 51.3125 C 39.828125 51.3125 51.3125 39.828125 51.3125 25.65625 C 51.3125 11.488281 39.828125 0 25.65625 0 Z M 25.65625 0 " clip-rule="nonzero"/></clipPath><clipPath id="2a36c24bb0"><path d="M 0 0 L 51.3125 0 L 51.3125 51.3125 L 0 51.3125 Z M 0 0 " clip-rule="nonzero"/></clipPath><clipPath id="f56a660c0f"><path d="M 25.65625 0 C 11.488281 0 0 11.488281 0 25.65625 C 0 39.828125 11.488281 51.3125 25.65625 51.3125 C 39.828125 51.3125 51.3125 39.828125 51.3125 25.65625 C 51.3125 11.488281 39.828125 0 25.65625 0 Z M 25.65625 0 " clip-rule="nonzero"/></clipPath><clipPath id="24bcb59bee"><rect x="0" width="52" y="0" height="52"/></clipPath><clipPath id="979c89b5f8"><path d="M 7.179688 7.179688 L 44.324219 7.179688 L 44.324219 44.324219 L 7.179688 44.324219 Z M 7.179688 7.179688 " clip-rule="nonzero"/></clipPath></defs><g clip-path="url(#e338989499)"><g clip-path="url(#f33029c919)"><g transform="matrix(1, 0, 0, 1, 0, 0.000000000000000295)"><g clip-path="url(#24bcb59bee)"><g clip-path="url(#2a36c24bb0)"><g clip-path="url(#f56a660c0f)"><path fill="#8c52ff" d="M 0 0 L 51.3125 0 L 51.3125 51.3125 L 0 51.3125 Z M 0 0 " fill-opacity="1" fill-rule="nonzero"/></g></g></g></g></g></g><g clip-path="url(#979c89b5f8)"><path fill="#ffffff" d="M 13.984375 27.597656 C 12.914062 27.597656 12.039062 28.472656 12.039062 29.542969 C 12.039062 30.613281 12.914062 31.488281 13.984375 31.488281 C 15.054688 31.488281 15.929688 30.613281 15.929688 29.542969 C 15.929688 28.472656 15.054688 27.597656 13.984375 27.597656 Z M 13.984375 35.378906 C 12.914062 35.378906 12.039062 36.253906 12.039062 37.320312 C 12.039062 38.390625 12.914062 39.265625 13.984375 39.265625 C 15.054688 39.265625 15.929688 38.390625 15.929688 37.320312 C 15.929688 36.253906 15.054688 35.378906 13.984375 35.378906 Z M 13.984375 19.820312 C 12.914062 19.820312 12.039062 20.695312 12.039062 21.765625 C 12.039062 22.832031 12.914062 23.707031 13.984375 23.707031 C 15.054688 23.707031 15.929688 22.832031 15.929688 21.765625 C 15.929688 20.695312 15.054688 19.820312 13.984375 19.820312 Z M 8.152344 20.792969 C 7.617188 20.792969 7.179688 21.230469 7.179688 21.765625 C 7.179688 22.300781 7.617188 22.738281 8.152344 22.738281 C 8.6875 22.738281 9.125 22.300781 9.125 21.765625 C 9.125 21.230469 8.6875 20.792969 8.152344 20.792969 Z M 13.984375 12.039062 C 12.914062 12.039062 12.039062 12.914062 12.039062 13.984375 C 12.039062 15.054688 12.914062 15.929688 13.984375 15.929688 C 15.054688 15.929688 15.929688 15.054688 15.929688 13.984375 C 15.929688 12.914062 15.054688 12.039062 13.984375 12.039062 Z M 43.15625 22.738281 C 43.691406 22.738281 44.128906 22.300781 44.128906 21.765625 C 44.128906 21.230469 43.691406 20.792969 43.15625 20.792969 C 42.621094 20.792969 42.183594 21.230469 42.183594 21.765625 C 42.183594 22.300781 42.621094 22.738281 43.15625 22.738281 Z M 29.542969 15.929688 C 30.613281 15.929688 31.488281 15.054688 31.488281 13.984375 C 31.488281 12.914062 30.613281 12.039062 29.542969 12.039062 C 28.472656 12.039062 27.597656 12.914062 27.597656 13.984375 C 27.597656 15.054688 28.472656 15.929688 29.542969 15.929688 Z M 29.542969 9.125 C 30.078125 9.125 30.515625 8.6875 30.515625 8.152344 C 30.515625 7.617188 30.078125 7.179688 29.542969 7.179688 C 29.007812 7.179688 28.570312 7.617188 28.570312 8.152344 C 28.570312 8.6875 29.007812 9.125 29.542969 9.125 Z M 8.152344 28.570312 C 7.617188 28.570312 7.179688 29.007812 7.179688 29.542969 C 7.179688 30.078125 7.617188 30.515625 8.152344 30.515625 C 8.6875 30.515625 9.125 30.078125 9.125 29.542969 C 9.125 29.007812 8.6875 28.570312 8.152344 28.570312 Z M 21.765625 42.183594 C 21.230469 42.183594 20.792969 42.621094 20.792969 43.15625 C 20.792969 43.691406 21.230469 44.128906 21.765625 44.128906 C 22.300781 44.128906 22.738281 43.691406 22.738281 43.15625 C 22.738281 42.621094 22.300781 42.183594 21.765625 42.183594 Z M 21.765625 9.125 C 22.300781 9.125 22.738281 8.6875 22.738281 8.152344 C 22.738281 7.617188 22.300781 7.179688 21.765625 7.179688 C 21.230469 7.179688 20.792969 7.617188 20.792969 8.152344 C 20.792969 8.6875 21.230469 9.125 21.765625 9.125 Z M 21.765625 15.929688 C 22.832031 15.929688 23.707031 15.054688 23.707031 13.984375 C 23.707031 12.914062 22.832031 12.039062 21.765625 12.039062 C 20.695312 12.039062 19.820312 12.914062 19.820312 13.984375 C 19.820312 15.054688 20.695312 15.929688 21.765625 15.929688 Z M 21.765625 26.625 C 20.148438 26.625 18.847656 27.929688 18.847656 29.542969 C 18.847656 31.15625 20.148438 32.460938 21.765625 32.460938 C 23.378906 32.460938 24.679688 31.15625 24.679688 29.542969 C 24.679688 27.929688 23.378906 26.625 21.765625 26.625 Z M 37.320312 27.597656 C 36.253906 27.597656 35.378906 28.472656 35.378906 29.542969 C 35.378906 30.613281 36.253906 31.488281 37.320312 31.488281 C 38.390625 31.488281 39.265625 30.613281 39.265625 29.542969 C 39.265625 28.472656 38.390625 27.597656 37.320312 27.597656 Z M 37.320312 35.378906 C 36.253906 35.378906 35.378906 36.253906 35.378906 37.320312 C 35.378906 38.390625 36.253906 39.265625 37.320312 39.265625 C 38.390625 39.265625 39.265625 38.390625 39.265625 37.320312 C 39.265625 36.253906 38.390625 35.378906 37.320312 35.378906 Z M 37.320312 19.820312 C 36.253906 19.820312 35.378906 20.695312 35.378906 21.765625 C 35.378906 22.832031 36.253906 23.707031 37.320312 23.707031 C 38.390625 23.707031 39.265625 22.832031 39.265625 21.765625 C 39.265625 20.695312 38.390625 19.820312 37.320312 19.820312 Z M 37.320312 12.039062 C 36.253906 12.039062 35.378906 12.914062 35.378906 13.984375 C 35.378906 15.054688 36.253906 15.929688 37.320312 15.929688 C 38.390625 15.929688 39.265625 15.054688 39.265625 13.984375 C 39.265625 12.914062 38.390625 12.039062 37.320312 12.039062 Z M 43.15625 28.570312 C 42.621094 28.570312 42.183594 29.007812 42.183594 29.542969 C 42.183594 30.078125 42.621094 30.515625 43.15625 30.515625 C 43.691406 30.515625 44.128906 30.078125 44.128906 29.542969 C 44.128906 29.007812 43.691406 28.570312 43.15625 28.570312 Z M 29.542969 35.378906 C 28.472656 35.378906 27.597656 36.253906 27.597656 37.320312 C 27.597656 38.390625 28.472656 39.265625 29.542969 39.265625 C 30.613281 39.265625 31.488281 38.390625 31.488281 37.320312 C 31.488281 36.253906 30.613281 35.378906 29.542969 35.378906 Z M 29.542969 42.183594 C 29.007812 42.183594 28.570312 42.621094 28.570312 43.15625 C 28.570312 43.691406 29.007812 44.128906 29.542969 44.128906 C 30.078125 44.128906 30.515625 43.691406 30.515625 43.15625 C 30.515625 42.621094 30.078125 42.183594 29.542969 42.183594 Z M 21.765625 18.847656 C 20.148438 18.847656 18.847656 20.148438 18.847656 21.765625 C 18.847656 23.378906 20.148438 24.679688 21.765625 24.679688 C 23.378906 24.679688 24.679688 23.378906 24.679688 21.765625 C 24.679688 20.148438 23.378906 18.847656 21.765625 18.847656 Z M 21.765625 35.378906 C 20.695312 35.378906 19.820312 36.253906 19.820312 37.320312 C 19.820312 38.390625 20.695312 39.265625 21.765625 39.265625 C 22.832031 39.265625 23.707031 38.390625 23.707031 37.320312 C 23.707031 36.253906 22.832031 35.378906 21.765625 35.378906 Z M 29.542969 26.625 C 27.929688 26.625 26.625 27.929688 26.625 29.542969 C 26.625 31.15625 27.929688 32.460938 29.542969 32.460938 C 31.15625 32.460938 32.460938 31.15625 32.460938 29.542969 C 32.460938 27.929688 31.15625 26.625 29.542969 26.625 Z M 29.542969 18.847656 C 27.929688 18.847656 26.625 20.148438 26.625 21.765625 C 26.625 23.378906 27.929688 24.679688 29.542969 24.679688 C 31.15625 24.679688 32.460938 23.378906 32.460938 21.765625 C 32.460938 20.148438 31.15625 18.847656 29.542969 18.847656 Z M 29.542969 18.847656 " fill-opacity="1" fill-rule="nonzero"/></g></svg>